<svg width="238" height="55" viewBox="0 0 238 55" fill="none" xmlns="http://www.w3.org/2000/svg">
<g clip-path="url(#clip0_5_16)">
<path d="M95.3633 32.6442L78.5441 17.173C77.2377 15.9353 75.1149 15.5486 73.2371 16.0901C71.3592 16.6315 70.1345 18.0239 70.1345 19.6484V38.9874H76.0947V22.2785L92.9139 37.6723C93.812 38.5232 95.1184 38.9874 96.5064 38.9874C97.0779 38.9874 97.6494 38.91 98.2209 38.7553C100.099 38.2138 101.324 36.8214 101.324 35.1969V16.1674H95.3633V32.6442ZM105.487 21.9691V38.5232H111.448V21.9691C111.448 21.2729 112.183 20.7314 112.999 20.7314H133.166V15.9353H112.999C108.835 15.9353 105.487 18.6428 105.487 21.9691Z" fill="#FBFF1F"/>
<path d="M133.166 25.0633H113.734V29.8594H133.166V25.0633ZM138.309 20.7314H150.23V38.6006H156.19V20.7314H168.11V15.9353H138.309V20.7314ZM177.5 29.782V25.0633C177.5 22.6653 179.949 20.7314 182.889 20.7314H200.524V15.9353H182.889C176.602 15.9353 171.458 20.0352 171.458 25.0633V29.782C171.458 34.8101 176.602 38.91 182.889 38.91H193.911V34.1139H182.889C179.868 34.0366 177.5 32.1027 177.5 29.782Z" fill="#FBFF1F"/>
<path d="M194.646 24.986H183.46V29.782H194.646C195.462 29.782 196.197 30.1688 196.197 30.7103V38.5232H202.157V30.7103C202.239 27.5387 198.81 24.986 194.646 24.986Z" fill="#2DF91B"/>
<path d="M225.753 16.09H218.323C211.546 16.09 206.076 20.4993 206.076 25.8368V29.0084C206.076 34.4233 211.546 38.8326 218.323 38.8326H225.753C232.53 38.8326 238 34.4233 238 29.0084V25.8368C238 20.4993 232.448 16.09 225.753 16.09ZM231.958 29.0857C231.958 31.8706 229.182 34.1139 225.671 34.1139H218.242C214.812 34.1139 211.955 31.8706 211.955 29.0857V25.9142C211.955 23.1293 214.731 20.886 218.242 20.886H225.671C229.101 20.886 231.958 23.1293 231.958 25.9142V29.0857Z" fill="#FBFF1F"/>
<path d="M46.3753 55H11.6755C5.22539 55 0 50.0492 0 43.9381V11.0619C0 4.95077 5.22539 0 11.6755 0H46.4569C52.907 0 58.1324 4.95077 58.1324 11.0619V44.0155C58.0508 50.0492 52.8254 55 46.3753 55Z" fill="#2DF91B"/>
<path d="M35.8429 18.1786C35.4346 18.3333 35.5979 18.7975 36.0062 18.7201L38.2106 18.6427L33.8017 29.782L29.6377 22.5879C28.3314 20.2672 25.882 18.7201 23.106 18.5654H21.8813C18.6154 18.7975 15.9211 20.7314 14.778 23.6709L8.08301 41.308C8.00137 41.4627 8.16466 41.5401 8.24631 41.5401H18.3705C18.4521 41.5401 18.5338 41.4627 18.5338 41.3854L22.8611 30.3235L27.025 37.5176C28.5763 40.225 31.5972 41.7721 34.7815 41.5401C37.9657 41.308 40.7417 39.3741 41.8847 36.5119L48.8247 18.5654L50.7026 13.692C50.7842 13.5373 50.6209 13.3826 50.4576 13.4599L35.8429 18.1786Z" fill="white"/>
<mask id="mask0_5_16" style="mask-type:luminance" maskUnits="userSpaceOnUse" x="8" y="13" width="43" height="29">
<path d="M35.8429 18.1786C35.4346 18.3333 35.5979 18.7975 36.0062 18.7201L38.2106 18.6427L33.8017 29.782L29.6377 22.5879C28.3314 20.2672 25.882 18.7201 23.106 18.5654H21.8813C18.6154 18.7975 15.9211 20.7314 14.778 23.6709L8.08301 41.308C8.00137 41.4627 8.16466 41.5401 8.24631 41.5401H18.3705C18.4521 41.5401 18.5338 41.4627 18.5338 41.3854L22.8611 30.3235L27.025 37.5176C28.5763 40.225 31.5972 41.7721 34.7815 41.5401C37.9657 41.308 40.7417 39.3741 41.8847 36.5119L48.8247 18.5654L50.7026 13.692C50.7842 13.5373 50.6209 13.3826 50.4576 13.4599L35.8429 18.1786Z" fill="white"/>
</mask>
<g mask="url(#mask0_5_16)">
<path d="M36.741 46.1041L17.9623 11.9128L4.98044 43.8608H12.4919L17.554 30.1688C18.2888 28.0029 21.3914 27.8481 22.5345 29.8594L29.5561 43.0099L36.741 46.1041Z" fill="#CBD6FE"/>
</g>
<mask id="mask1_5_16" style="mask-type:luminance" maskUnits="userSpaceOnUse" x="8" y="13" width="43" height="29">
<path d="M35.8429 18.1786C35.4346 18.3333 35.5979 18.7975 36.0062 18.7201L38.2106 18.6427L33.8017 29.782L29.6377 22.5879C28.3314 20.2672 25.882 18.7201 23.106 18.5654H21.8813C18.6154 18.7975 15.9211 20.7314 14.778 23.6709L8.08301 41.308C8.00137 41.4627 8.16466 41.5401 8.24631 41.5401H18.3705C18.4521 41.5401 18.5338 41.4627 18.5338 41.3854L22.8611 30.3235L27.025 37.5176C28.5763 40.225 31.5972 41.7721 34.7815 41.5401C37.9657 41.308 40.7417 39.3741 41.8847 36.5119L48.8247 18.5654L50.7026 13.692C50.7842 13.5373 50.6209 13.3826 50.4576 13.4599L35.8429 18.1786Z" fill="white"/>
</mask>
<g mask="url(#mask1_5_16)">
<path d="M30.3726 23.5162L34.6998 31.0197C35.5163 32.4121 37.7208 32.3348 38.2923 30.7876L43.2727 18.7975H37.1492L30.3726 23.5162Z" fill="#CBD6FE"/>
</g>
</g>
<defs>
<clipPath id="clip0_5_16">
<rect width="238" height="55" fill="white"/>
</clipPath>
</defs>
</svg>
