<svg width="197" height="83" viewBox="0 0 197 83" fill="none" xmlns="http://www.w3.org/2000/svg">
<rect width="197" height="83" rx="41.5" fill="url(#paint0_linear_19_38)"/>
<path d="M51.2273 48.5L46.3409 41.9801H44.7926V48.5H42.598V33.9545H44.7926V40.098H45.5099L51.0071 33.9545H53.6847L47.8679 40.4673L53.9048 48.5H51.2273ZM56.3089 52.5909C55.9917 52.5909 55.7029 52.5649 55.4425 52.5128C55.1821 52.4654 54.9879 52.4134 54.8601 52.3565L55.3714 50.6165C55.7597 50.7206 56.1054 50.7656 56.4084 50.7514C56.7114 50.7372 56.9789 50.6236 57.2109 50.4105C57.4477 50.1974 57.656 49.8494 57.8359 49.3665L58.0987 48.642L54.1072 37.5909H56.38L59.1428 46.0568H59.2564L62.0192 37.5909H64.299L59.8033 49.956C59.5949 50.5241 59.3298 51.0047 59.0078 51.3977C58.6858 51.7955 58.3023 52.0938 57.8572 52.2926C57.4122 52.4915 56.8961 52.5909 56.3089 52.5909ZM66.2947 48.5V37.5909H75.1939V48.5H73.1129V39.4233H68.3615V48.5H66.2947ZM80.114 45.5241L84.9222 37.5909H87.2092V48.5H85.1282V40.5597L80.3413 48.5H78.033V37.5909H80.114V45.5241ZM88.7113 39.4233V37.5909H97.9158V39.4233H94.3576V48.5H92.2837V39.4233H88.7113ZM101.76 41.3409H104.928C106.263 41.3409 107.29 41.6723 108.01 42.3352C108.73 42.9981 109.089 43.8527 109.089 44.8991C109.089 45.581 108.929 46.1941 108.607 46.7386C108.285 47.2831 107.813 47.714 107.193 48.0312C106.573 48.3438 105.818 48.5 104.928 48.5H100.162V37.5909H102.243V46.6676H104.928C105.538 46.6676 106.04 46.509 106.433 46.1918C106.826 45.8698 107.023 45.4602 107.023 44.9631C107.023 44.4375 106.826 44.009 106.433 43.6776C106.04 43.3414 105.538 43.1733 104.928 43.1733H101.76V41.3409ZM128.674 33.9545V48.5H126.657L119.263 37.8324H119.129V48.5H116.934V33.9545H118.965L126.366 44.6364H126.501V33.9545H128.674ZM131.875 48.5V33.9545H140.895V35.8438H134.07V40.2756H140.249V42.1577H134.07V48.5H131.875ZM142.877 35.8438V33.9545H154.134V35.8438H149.596V48.5H147.408V35.8438H142.877Z" fill="black"/>
<defs>
<linearGradient id="paint0_linear_19_38" x1="151" y1="1.14693e-06" x2="38" y2="62" gradientUnits="userSpaceOnUse">
<stop stop-color="#CCFF00"/>
<stop offset="1" stop-color="#1BCBD7"/>
</linearGradient>
</defs>
</svg>
