<svg width="198" height="82" viewBox="0 0 198 82" fill="none" xmlns="http://www.w3.org/2000/svg">
<rect x="0.5" y="0.5" width="197" height="81" rx="40.5" stroke="#18F2E5"/>
<path d="M63.1676 33.4545V35.3438H56.2926V48H54.098V33.4545H63.1676ZM67.1609 48.2415C66.4696 48.2415 65.8446 48.1136 65.2859 47.858C64.7272 47.5975 64.2844 47.2211 63.9577 46.7287C63.6358 46.2363 63.4748 45.6326 63.4748 44.9176C63.4748 44.3021 63.5932 43.7955 63.8299 43.3977C64.0666 43 64.3862 42.6851 64.7887 42.4531C65.1912 42.2211 65.641 42.0459 66.1381 41.9276C66.6353 41.8092 67.1419 41.7192 67.658 41.6577C68.3114 41.5819 68.8417 41.5204 69.2489 41.473C69.6561 41.4209 69.9521 41.3381 70.1367 41.2244C70.3214 41.1108 70.4137 40.9261 70.4137 40.6705V40.6207C70.4137 40.0005 70.2385 39.5199 69.8881 39.179C69.5425 38.8381 69.0264 38.6676 68.3398 38.6676C67.6249 38.6676 67.0614 38.8262 66.6495 39.1435C66.2423 39.456 65.9606 39.804 65.8043 40.1875L63.8086 39.733C64.0453 39.0701 64.391 38.535 64.8455 38.1278C65.3048 37.7159 65.8327 37.4176 66.4293 37.233C67.0259 37.0436 67.6533 36.9489 68.3114 36.9489C68.747 36.9489 69.2087 37.0009 69.6964 37.1051C70.1888 37.2045 70.6481 37.3892 71.0742 37.6591C71.5051 37.929 71.8578 38.3149 72.1325 38.8168C72.4071 39.3139 72.5444 39.9602 72.5444 40.7557V48H70.4705V46.5085H70.3853C70.248 46.7831 70.042 47.053 69.7674 47.3182C69.4928 47.5833 69.14 47.8035 68.7092 47.9787C68.2783 48.1539 67.7622 48.2415 67.1609 48.2415ZM67.6225 46.5369C68.2096 46.5369 68.7115 46.4209 69.1282 46.1889C69.5496 45.9569 69.8692 45.6539 70.087 45.2798C70.3095 44.901 70.4208 44.4962 70.4208 44.0653V42.6591C70.3451 42.7348 70.1983 42.8059 69.9805 42.8722C69.7674 42.9337 69.5236 42.9882 69.2489 43.0355C68.9743 43.0781 68.7068 43.1184 68.4464 43.1562C68.186 43.1894 67.9682 43.2178 67.793 43.2415C67.381 43.2936 67.0046 43.3812 66.6637 43.5043C66.3275 43.6274 66.0576 43.8049 65.854 44.0369C65.6552 44.2642 65.5558 44.5672 65.5558 44.946C65.5558 45.4716 65.7499 45.8693 66.1381 46.1392C66.5264 46.4044 67.0212 46.5369 67.6225 46.5369ZM74.5135 48L74.5064 46.1605H74.897C75.2 46.1605 75.4534 46.0966 75.657 45.9688C75.8653 45.8362 76.0357 45.6136 76.1683 45.3011C76.3009 44.9886 76.4027 44.5578 76.4737 44.0085C76.5447 43.4545 76.5968 42.7585 76.63 41.9205L76.8217 37.0909H84.4354V48H82.3544V38.9233H78.7891L78.6186 42.6307C78.576 43.5303 78.4837 44.3163 78.3416 44.9886C78.2043 45.661 78.0031 46.2221 77.7379 46.6719C77.4728 47.117 77.1319 47.4508 76.7152 47.6733C76.2985 47.8911 75.7919 48 75.1953 48H74.5135ZM86.408 48L86.4009 46.1605H86.7915C87.0946 46.1605 87.3479 46.0966 87.5515 45.9688C87.7598 45.8362 87.9303 45.6136 88.0629 45.3011C88.1954 44.9886 88.2972 44.5578 88.3683 44.0085C88.4393 43.4545 88.4914 42.7585 88.5245 41.9205L88.7163 37.0909H96.3299V48H94.2489V38.9233H90.6836L90.5131 42.6307C90.4705 43.5303 90.3782 44.3163 90.2362 44.9886C90.0988 45.661 89.8976 46.2221 89.6325 46.6719C89.3673 47.117 89.0264 47.4508 88.6097 47.6733C88.1931 47.8911 87.6864 48 87.0898 48H86.408ZM103.864 48.2202C102.789 48.2202 101.863 47.9905 101.087 47.5312C100.315 47.0672 99.7183 46.4162 99.2969 45.5781C98.8802 44.7353 98.6719 43.7481 98.6719 42.6165C98.6719 41.4991 98.8802 40.5142 99.2969 39.6619C99.7183 38.8097 100.305 38.1444 101.058 37.6662C101.816 37.188 102.701 36.9489 103.714 36.9489C104.33 36.9489 104.927 37.0507 105.504 37.2543C106.082 37.4579 106.6 37.7775 107.06 38.2131C107.519 38.6487 107.881 39.2145 108.146 39.9105C108.411 40.6018 108.544 41.4422 108.544 42.4318V43.1847H99.8722V41.5938H106.463C106.463 41.035 106.349 40.5402 106.122 40.1094C105.895 39.6738 105.575 39.3305 105.163 39.0795C104.756 38.8286 104.278 38.7031 103.729 38.7031C103.132 38.7031 102.611 38.8499 102.166 39.1435C101.726 39.4323 101.385 39.8111 101.143 40.2798C100.907 40.7438 100.788 41.2481 100.788 41.7926V43.0355C100.788 43.7647 100.916 44.3849 101.172 44.8963C101.432 45.4077 101.795 45.7983 102.259 46.0682C102.723 46.3333 103.265 46.4659 103.885 46.4659C104.287 46.4659 104.654 46.4091 104.986 46.2955C105.317 46.1771 105.604 46.0019 105.845 45.7699C106.087 45.5379 106.271 45.2514 106.399 44.9105L108.409 45.2727C108.248 45.8646 107.959 46.383 107.543 46.8281C107.131 47.2685 106.612 47.6117 105.987 47.858C105.367 48.0994 104.659 48.2202 103.864 48.2202ZM110.9 52.0909V37.0909H112.974V38.8594H113.152C113.275 38.6321 113.452 38.3693 113.684 38.071C113.916 37.7727 114.238 37.5123 114.65 37.2898C115.062 37.0625 115.607 36.9489 116.284 36.9489C117.164 36.9489 117.95 37.1714 118.642 37.6165C119.333 38.0616 119.875 38.7031 120.268 39.5412C120.666 40.3793 120.865 41.3878 120.865 42.5668C120.865 43.7457 120.668 44.7566 120.275 45.5994C119.882 46.4375 119.342 47.0838 118.656 47.5384C117.969 47.9882 117.186 48.2131 116.305 48.2131C115.642 48.2131 115.1 48.1018 114.679 47.8793C114.262 47.6567 113.935 47.3963 113.699 47.098C113.462 46.7997 113.279 46.5346 113.152 46.3026H113.024V52.0909H110.9ZM112.981 42.5455C112.981 43.3125 113.092 43.9848 113.315 44.5625C113.538 45.1402 113.859 45.5923 114.281 45.919C114.702 46.241 115.218 46.402 115.829 46.402C116.464 46.402 116.994 46.2339 117.42 45.8977C117.846 45.5568 118.168 45.0952 118.386 44.5128C118.609 43.9304 118.72 43.2746 118.72 42.5455C118.72 41.8258 118.611 41.1795 118.393 40.6065C118.18 40.0336 117.858 39.5814 117.427 39.25C117.001 38.9186 116.468 38.7528 115.829 38.7528C115.214 38.7528 114.693 38.9115 114.267 39.2287C113.845 39.5459 113.526 39.9886 113.308 40.5568C113.09 41.125 112.981 41.7879 112.981 42.5455ZM127.946 48.2202C126.871 48.2202 125.945 47.9905 125.169 47.5312C124.397 47.0672 123.8 46.4162 123.379 45.5781C122.962 44.7353 122.754 43.7481 122.754 42.6165C122.754 41.4991 122.962 40.5142 123.379 39.6619C123.8 38.8097 124.387 38.1444 125.14 37.6662C125.898 37.188 126.783 36.9489 127.797 36.9489C128.412 36.9489 129.009 37.0507 129.586 37.2543C130.164 37.4579 130.682 37.7775 131.142 38.2131C131.601 38.6487 131.963 39.2145 132.228 39.9105C132.493 40.6018 132.626 41.4422 132.626 42.4318V43.1847H123.954V41.5938H130.545C130.545 41.035 130.431 40.5402 130.204 40.1094C129.977 39.6738 129.657 39.3305 129.245 39.0795C128.838 38.8286 128.36 38.7031 127.811 38.7031C127.214 38.7031 126.693 38.8499 126.248 39.1435C125.808 39.4323 125.467 39.8111 125.225 40.2798C124.989 40.7438 124.87 41.2481 124.87 41.7926V43.0355C124.87 43.7647 124.998 44.3849 125.254 44.8963C125.514 45.4077 125.877 45.7983 126.341 46.0682C126.805 46.3333 127.347 46.4659 127.967 46.4659C128.369 46.4659 128.736 46.4091 129.068 46.2955C129.399 46.1771 129.686 46.0019 129.927 45.7699C130.169 45.5379 130.353 45.2514 130.481 44.9105L132.491 45.2727C132.33 45.8646 132.041 46.383 131.625 46.8281C131.213 47.2685 130.694 47.6117 130.069 47.858C129.449 48.0994 128.741 48.2202 127.946 48.2202ZM141.488 48V38.902H138.874C138.254 38.902 137.771 39.0464 137.425 39.3352C137.08 39.6241 136.907 40.0028 136.907 40.4716C136.907 40.9356 137.066 41.3097 137.383 41.5938C137.705 41.8731 138.155 42.0128 138.732 42.0128H142.106V43.7315H138.732C137.927 43.7315 137.231 43.599 136.644 43.3338C136.062 43.0639 135.612 42.6828 135.295 42.1903C134.982 41.6979 134.826 41.1155 134.826 40.4432C134.826 39.7566 134.987 39.1648 135.309 38.6676C135.636 38.1657 136.102 37.7775 136.708 37.5028C137.319 37.2282 138.041 37.0909 138.874 37.0909H143.484V48H141.488ZM134.329 48L137.404 42.4886H139.577L136.502 48H134.329Z" fill="#18F2E5"/>
</svg>
